<svg viewBox="0 0 40 40" xmlns="http://www.w3.org/2000/svg"><path d="m11.72.14c-2.13.1-3.58.44-4.85.94-1.31.51-2.43 1.2-3.54 2.31s-1.79 2.23-2.3 3.55c-.49 1.27-.83 2.73-.92 4.86-.1 2.13-.11 2.81-.11 8.24.01 5.43.03 6.11.14 8.25.1 2.13.44 3.58.94 4.85.51 1.31 1.2 2.43 2.31 3.54s2.23 1.79 3.55 2.3c1.27.49 2.73.83 4.86.92s2.81.11 8.24.1 6.11-.03 8.25-.14c2.13-.1 3.58-.44 4.85-.94 1.31-.51 2.43-1.2 3.54-2.31s1.79-2.23 2.3-3.55c.49-1.27.83-2.73.92-4.85.09-2.13.12-2.82.1-8.25-.01-5.43-.03-6.11-.14-8.24-.1-2.13-.44-3.58-.94-4.85-.51-1.31-1.2-2.43-2.31-3.54s-2.23-1.79-3.55-2.3c-1.27-.49-2.73-.83-4.86-.92-2.13-.1-2.81-.11-8.24-.11-5.43.01-6.11.03-8.24.14m.23 36.16c-1.95-.08-3.01-.41-3.71-.68-.93-.36-1.6-.8-2.3-1.49-.7-.7-1.14-1.36-1.5-2.3-.27-.71-.6-1.76-.7-3.71-.1-2.11-.12-2.74-.13-8.08s0-5.97.1-8.08c.08-1.95.41-3.01.68-3.71.36-.94.79-1.6 1.49-2.3s1.36-1.14 2.3-1.5c.71-.28 1.76-.6 3.71-.7 2.11-.1 2.74-.12 8.08-.13s5.97 0 8.08.1c1.95.08 3.01.41 3.71.68.94.36 1.6.79 2.3 1.49s1.14 1.36 1.5 2.3c.28.7.6 1.76.69 3.71.1 2.11.12 2.74.13 8.08s0 5.97-.1 8.08c-.08 1.95-.41 3.01-.68 3.72-.36.93-.79 1.6-1.49 2.3s-1.36 1.14-2.3 1.5c-.7.27-1.76.6-3.71.7-2.11.1-2.74.12-8.08.13s-5.97 0-8.08-.1m16.31-27c0 1.32 1.08 2.4 2.4 2.39 1.33 0 2.4-1.08 2.4-2.4s-1.08-2.4-2.4-2.4-2.4 1.08-2.4 2.4m-18.52 10.71c.01 5.67 4.62 10.26 10.29 10.25s10.26-4.62 10.25-10.29-4.62-10.26-10.29-10.25-10.26 4.62-10.25 10.29m3.6 0c0-3.68 2.97-6.67 6.65-6.68 3.68 0 6.67 2.97 6.68 6.65 0 3.68-2.97 6.67-6.65 6.68-3.68 0-6.67-2.97-6.68-6.65" fill="#b3b3b3"/></svg>