<?xml version="1.0" encoding="UTF-8"?>
<svg id="_レイヤー_2" data-name="レイヤー 2" xmlns="http://www.w3.org/2000/svg" viewBox="0 0 178.15 27.3">
  <defs>
    <style>
      .cls-1 {
        fill: #fff;
        stroke-width: 0px;
      }
    </style>
  </defs>
  <g id="_参考画像" data-name="参考画像">
    <g>
      <path class="cls-1" d="m8.57,5.02c.75.91,1.65,1.66,2.64,2.26,1.38.85,2.86,1.39,4.14,1.69v-1.69c-1.18-1.62-2.03-3.61-2.1-5.94-.02-.61-.4-1.15-.98-1.31-.41-.11-.84-.01-1.12.31-.71.83-1.74,2.39-2.58,4.67h0Zm8.49,2.55v3.43c-3.24-.27-9.86-2.35-11.69-8.43-.18-.58-.68-1.01-1.28-1.01-.42,0-.82.21-1,.59-.59,1.23-1.38,3.7-1.38,7.13,0,6.27,4.27,9.68,6.31,10.87l-7.39,2.03c-.27.08-.49.28-.58.55s-.04.57.12.79c.99,1.32,3.95,3.77,8.36,3.77.19,0,.38-.06.53-.19l4.03-3.24h3.97c4.71,0,8.53-3.84,8.53-8.58V6.71l1.59-2.41c.07-.11.11-.24.11-.36,0-.36-.29-.66-.66-.66h-5.32c-2.36,0-4.27,1.92-4.27,4.29h0Zm4.27-.86c.47,0,.85.38.85.86s-.38.86-.85.86-.85-.38-.85-.86.38-.86.85-.86Z"/>
      <g>
        <path class="cls-1" d="m44.43,15.8l-4.82-8.36h1.89l3.74,6.56,3.78-6.56h1.89l-4.86,8.36v6.31h-1.63v-6.31Z"/>
        <path class="cls-1" d="m54.62,16.44c0,1.23,0,2.57,1.17,3.56.59.51,1.61.84,2.42.84s1.83-.33,2.42-.84c1.17-.99,1.17-2.33,1.17-3.56V7.44h1.63v9.44c0,1.23-.13,2.42-.92,3.52-.88,1.21-2.42,1.98-4.29,1.98s-3.41-.77-4.29-1.98c-.79-1.1-.92-2.29-.92-3.52V7.44h1.63v9Z"/>
        <path class="cls-1" d="m68.83,13.73l6.25-6.29h2.2l-6.86,6.84,7.08,7.83h-2.25l-6.01-6.73-.42.42v6.31h-1.63V7.44h1.63v6.29Z"/>
        <path class="cls-1" d="m87.79,17.98h-6.25l-1.76,4.14h-1.8l6.75-15.38,6.58,15.38h-1.8l-1.72-4.14Zm-.64-1.54l-2.46-5.88-2.51,5.88h4.97Z"/>
        <path class="cls-1" d="m105.06,10.34c-.2-.4-.53-.84-.86-1.1-.29-.22-.81-.51-1.65-.51-1.45,0-2.46.9-2.46,2.27,0,.57.15.9.55,1.28.44.44.99.68,1.54.92l1.41.62c.86.37,1.65.77,2.27,1.39.75.75,1.06,1.61,1.06,2.66,0,2.71-2,4.51-4.64,4.51-.97,0-2.18-.2-3.19-1.19-.73-.7-1.17-1.72-1.36-2.6l1.58-.44c.11.77.46,1.43.88,1.87.64.64,1.36.81,2.11.81,2,0,2.95-1.43,2.95-2.9,0-.66-.2-1.23-.73-1.72-.42-.4-.99-.66-1.76-1.01l-1.32-.62c-.57-.26-1.3-.57-1.96-1.21-.64-.62-1.01-1.3-1.01-2.4,0-2.27,1.74-3.78,4.12-3.78.9,0,1.63.18,2.35.66.59.4,1.1.99,1.43,1.63l-1.3.86Z"/>
        <path class="cls-1" d="m111.53,13.4h7.53v-5.96h1.63v14.68h-1.63v-7.17h-7.53v7.17h-1.63V7.44h1.63v5.96Z"/>
        <path class="cls-1" d="m126.09,7.44v14.68h-1.63V7.44h1.63Z"/>
        <path class="cls-1" d="m137.45,14.74h6.12v.35c0,1.63-.48,3.39-1.41,4.64-.44.59-2.09,2.64-5.46,2.64-4.36,0-7.61-3.32-7.61-7.59s3.28-7.59,7.66-7.59c1.41,0,3.06.35,4.49,1.45.66.51,1.28,1.17,1.69,1.74l-1.21,1.1c-.42-.59-.9-1.12-1.39-1.52-.7-.57-1.8-1.23-3.56-1.23-3.54,0-6.01,2.66-6.01,6.07,0,4,3.19,6.03,5.96,6.03,1.96,0,3.65-.99,4.49-2.46.26-.46.55-1.17.59-2.09h-4.36v-1.54Z"/>
        <path class="cls-1" d="m154.17,8.98h-5.99v4.36h5.81v1.54h-5.81v5.7h5.99v1.54h-7.61V7.44h7.61v1.54Z"/>
        <path class="cls-1" d="m160.77,8.98v13.14h-1.63v-13.14h-3.56v-1.54h8.76v1.54h-3.56Z"/>
        <path class="cls-1" d="m174.63,17.98h-6.25l-1.76,4.14h-1.8l6.75-15.38,6.58,15.38h-1.8l-1.72-4.14Zm-.64-1.54l-2.46-5.88-2.51,5.88h4.97Z"/>
      </g>
    </g>
  </g>
</svg>