<?xml version="1.0" encoding="UTF-8"?>
<svg id="_レイヤー_2" data-name="レイヤー 2" xmlns="http://www.w3.org/2000/svg" viewBox="0 0 255.26 28.83">
  <defs>
    <style>
      .cls-1 {
        fill: #b3b3b3;
        stroke-width: 0px;
      }
    </style>
  </defs>
  <g id="_参考画像" data-name="参考画像">
    <g>
      <path class="cls-1" d="m8.88,16.7L0,1.3h3.49l6.89,12.08L17.35,1.3h3.49l-8.96,15.41v11.64h-3v-11.64Z"/>
      <path class="cls-1" d="m27.65,17.88c0,2.27,0,4.74,2.15,6.57,1.09.93,2.96,1.54,4.46,1.54s3.37-.61,4.46-1.54c2.15-1.82,2.15-4.3,2.15-6.57V1.3h3v17.39c0,2.27-.24,4.46-1.7,6.49-1.62,2.23-4.46,3.65-7.91,3.65s-6.28-1.42-7.91-3.65c-1.46-2.03-1.7-4.22-1.7-6.49V1.3h3v16.58Z"/>
      <path class="cls-1" d="m53.83,12.89l11.51-11.6h4.05l-12.65,12.61,13.05,14.43h-4.14l-11.07-12.41-.77.77v11.64h-3V1.3h3v11.6Z"/>
      <path class="cls-1" d="m88.78,20.72h-11.51l-3.24,7.62h-3.32L83.14,0l12.12,28.34h-3.32l-3.16-7.62Zm-1.18-2.84l-4.54-10.83-4.62,10.83h9.16Z"/>
      <path class="cls-1" d="m120.6,6.65c-.36-.73-.97-1.54-1.58-2.03-.53-.41-1.5-.93-3.04-.93-2.68,0-4.54,1.66-4.54,4.18,0,1.05.28,1.66,1.01,2.35.81.81,1.82,1.26,2.84,1.7l2.59,1.14c1.58.69,3.04,1.42,4.18,2.55,1.38,1.38,1.95,2.96,1.95,4.91,0,4.99-3.69,8.31-8.55,8.31-1.78,0-4.01-.36-5.88-2.19-1.34-1.3-2.15-3.16-2.51-4.78l2.92-.81c.2,1.42.85,2.64,1.62,3.45,1.18,1.18,2.51,1.5,3.89,1.5,3.69,0,5.43-2.63,5.43-5.35,0-1.22-.36-2.27-1.34-3.16-.77-.73-1.82-1.22-3.24-1.87l-2.43-1.13c-1.05-.49-2.39-1.05-3.61-2.23-1.18-1.13-1.86-2.39-1.86-4.42,0-4.18,3.2-6.97,7.58-6.97,1.66,0,3,.33,4.34,1.22,1.09.73,2.03,1.82,2.64,3l-2.39,1.58Z"/>
      <path class="cls-1" d="m132.51,12.28h13.87V1.3h3v27.04h-3v-13.22h-13.87v13.22h-3V1.3h3v10.99Z"/>
      <path class="cls-1" d="m159.35,1.3v27.04h-3V1.3h3Z"/>
      <path class="cls-1" d="m180.26,14.76h11.27v.65c0,3-.89,6.24-2.59,8.55-.81,1.09-3.85,4.87-10.05,4.87-8.03,0-14.03-6.12-14.03-13.99s6.04-13.99,14.11-13.99c2.59,0,5.64.65,8.27,2.68,1.22.93,2.35,2.15,3.12,3.2l-2.23,2.03c-.77-1.09-1.66-2.07-2.55-2.8-1.3-1.05-3.32-2.27-6.57-2.27-6.53,0-11.07,4.91-11.07,11.19,0,7.38,5.88,11.11,10.99,11.11,3.61,0,6.73-1.82,8.27-4.54.49-.85,1.01-2.15,1.09-3.85h-8.03v-2.84Z"/>
      <path class="cls-1" d="m211.07,4.13h-11.03v8.03h10.7v2.84h-10.7v10.5h11.03v2.84h-14.03V1.3h14.03v2.84Z"/>
      <path class="cls-1" d="m223.23,4.13v24.2h-3V4.13h-6.57V1.3h16.14v2.84h-6.57Z"/>
      <path class="cls-1" d="m248.77,20.72h-11.51l-3.24,7.62h-3.32L243.13,0l12.12,28.34h-3.32l-3.16-7.62Zm-1.18-2.84l-4.54-10.83-4.62,10.83h9.16Z"/>
    </g>
  </g>
</svg>