<?xml version="1.0" encoding="UTF-8"?>
<svg id="_レイヤー_2" data-name="レイヤー 2" xmlns="http://www.w3.org/2000/svg" viewBox="0 0 32 32">
  <defs>
    <style>
      .cls-1 {
        fill: #fff;
      }
    </style>
  </defs>
  <g id="_参考画像" data-name="参考画像">
    <path class="cls-1" d="m9.37.11c-1.7.08-2.87.35-3.88.75-1.05.41-1.94.96-2.83,1.85-.89.89-1.43,1.78-1.84,2.84-.39,1.02-.66,2.18-.74,3.89C.01,11.14,0,11.69,0,16.03c0,4.34.03,4.89.11,6.6.08,1.7.35,2.86.75,3.88.41,1.05.96,1.94,1.85,2.83.89.89,1.78,1.43,2.84,1.84,1.02.39,2.18.66,3.88.74,1.71.08,2.25.09,6.6.08,4.35,0,4.89-.03,6.6-.11,1.7-.08,2.86-.35,3.88-.75,1.05-.41,1.94-.96,2.83-1.85.89-.89,1.43-1.78,1.84-2.84.39-1.02.66-2.18.74-3.88.07-1.71.09-2.25.08-6.6,0-4.34-.03-4.89-.11-6.6-.08-1.7-.35-2.87-.75-3.88-.41-1.05-.96-1.94-1.85-2.83-.89-.89-1.78-1.43-2.84-1.84-1.02-.39-2.18-.66-3.88-.74C20.86.01,20.31,0,15.97,0c-4.34,0-4.89.03-6.6.11m.19,28.92c-1.56-.07-2.41-.33-2.97-.54-.75-.29-1.28-.64-1.84-1.19-.56-.56-.91-1.09-1.2-1.84-.22-.56-.48-1.41-.56-2.97-.08-1.69-.1-2.19-.11-6.46,0-4.27,0-4.78.08-6.47.07-1.56.33-2.41.54-2.97.29-.75.64-1.28,1.19-1.84.56-.56,1.09-.91,1.84-1.2.56-.22,1.41-.48,2.97-.56,1.69-.08,2.19-.1,6.46-.11,4.27,0,4.78,0,6.47.08,1.56.07,2.41.33,2.97.54.75.29,1.28.63,1.84,1.19.56.56.91,1.09,1.2,1.84.22.56.48,1.41.56,2.97.08,1.69.1,2.19.11,6.46,0,4.27,0,4.78-.08,6.47-.07,1.56-.33,2.41-.54,2.97-.29.75-.64,1.28-1.19,1.84-.56.56-1.09.91-1.84,1.2-.56.22-1.41.48-2.97.56-1.69.08-2.19.1-6.47.11-4.27,0-4.78,0-6.46-.08M22.6,7.45c0,1.06.86,1.92,1.92,1.92,1.06,0,1.92-.86,1.92-1.92,0-1.06-.86-1.92-1.92-1.92-1.06,0-1.92.86-1.92,1.92m-14.82,8.57c0,4.54,3.69,8.21,8.23,8.2,4.54,0,8.21-3.69,8.2-8.23,0-4.54-3.69-8.21-8.23-8.2-4.54,0-8.21,3.69-8.2,8.23m2.88,0c0-2.95,2.38-5.34,5.32-5.34,2.95,0,5.34,2.38,5.34,5.32,0,2.95-2.38,5.34-5.32,5.34-2.94,0-5.34-2.38-5.34-5.32"/>
  </g>
</svg>