<?xml version="1.0" encoding="UTF-8"?>
<svg id="_レイヤー_2" data-name="レイヤー 2" xmlns="http://www.w3.org/2000/svg" viewBox="0 0 50.29 50.29">
  <defs>
    <style>
      .cls-1 {
        fill: #77cbd1;
        stroke-width: 0px;
      }
    </style>
  </defs>
  <g id="_参考画像" data-name="参考画像">
    <path class="cls-1" d="m15.79,9.25c1.38,1.68,3.05,3.05,4.86,4.17,2.54,1.56,5.28,2.56,7.63,3.12v-3.11c-2.18-2.99-3.73-6.65-3.87-10.94-.04-1.12-.74-2.12-1.81-2.41-.75-.2-1.55-.02-2.06.57-1.31,1.52-3.21,4.41-4.75,8.61h0Zm15.64,4.69v6.32c-5.97-.5-18.17-4.33-21.54-15.53-.32-1.07-1.26-1.86-2.37-1.86-.78,0-1.5.39-1.85,1.09-1.08,2.26-2.53,6.83-2.53,13.14,0,11.55,7.87,17.83,11.63,20.03l-13.62,3.73c-.5.14-.9.51-1.07,1.01s-.08,1.05.23,1.46c1.82,2.43,7.28,6.95,15.4,6.95.35,0,.71-.12.98-.35l7.43-5.98h7.31c8.68,0,15.72-7.07,15.72-15.8v-15.8l2.94-4.43c.13-.2.21-.43.21-.67,0-.67-.54-1.21-1.21-1.21h-9.79c-4.34,0-7.86,3.54-7.86,7.9h0Zm7.86-1.58c.87,0,1.57.71,1.57,1.58s-.7,1.58-1.57,1.58-1.57-.71-1.57-1.58.7-1.58,1.57-1.58Z"/>
  </g>
</svg>