<svg viewBox="0 0 119.62 102.67" xmlns="http://www.w3.org/2000/svg"><path d="m85.02 102.32c-.86 0-1.7-.22-2.45-.63l-69.82-38.19c-2.48-1.36-3.39-4.48-2.04-6.96l29.46-53.87c1.36-2.49 4.48-3.4 6.96-2.04l69.82 38.18c2.48 1.36 3.39 4.48 2.04 6.96l-29.46 53.87c-.65 1.2-1.75 2.08-3.06 2.46-.47.14-.96.21-1.45.21zm-2.03-1.4c2.06 1.13 4.64.37 5.77-1.69l29.46-53.87c1.12-2.06.37-4.64-1.69-5.77l-69.82-38.19c-2.06-1.13-4.64-.37-5.77 1.69l-29.46 53.88c-1.12 2.06-.37 4.64 1.69 5.77z" fill="#f2f2f2"/><path d="m86.46 83.48c-.8 0-1.59-.2-2.3-.59l-56.45-30.87c-2.31-1.26-3.16-4.15-1.9-6.46l17.61-32.18c1.26-2.31 4.16-3.16 6.46-1.89l56.45 30.87c2.31 1.26 3.16 4.16 1.89 6.46l-.06-.04.06.04-17.6 32.18c-.83 1.53-2.43 2.48-4.17 2.48z" fill="#f2f2f2"/><path d="m84.71 102.31h-79.58c-2.63 0-4.76-2.13-4.76-4.76v-61.4c0-2.63 2.13-4.76 4.76-4.76h79.58c2.63 0 4.76 2.13 4.76 4.76v61.4c0 2.63-2.13 4.76-4.76 4.76z" fill="#fff"/><path d="m84.71 102.67h-79.58c-2.83 0-5.13-2.3-5.13-5.13v-61.4c0-2.83 2.3-5.13 5.13-5.13h79.58c2.83 0 5.13 2.3 5.13 5.13v61.4c0 2.83-2.3 5.13-5.13 5.13zm-79.58-70.78c-2.35 0-4.25 1.9-4.25 4.25v61.4c0 2.35 1.9 4.25 4.25 4.25h79.58c2.35 0 4.25-1.9 4.25-4.25v-61.4c0-2.35-1.9-4.25-4.25-4.25z" fill="#e6e6e6"/><path d="m57.3 51.57c-1.87 0-3.64.88-4.77 2.37-2-.86-4.31.06-5.17 2.06-.21.49-.32 1.02-.32 1.55h16.24c0-3.3-2.68-5.98-5.98-5.98z" fill="#e6e6e6"/><circle cx="21.72" cy="65.35" fill="#1da9b3" r="9.64"/><path d="m78.16 85.21c-.35.08-.72.13-1.08.12h-64.33c-.79 0-1.57-.2-2.27-.58l.17-.25 7.18-10.34 10.64-15.31.16-.22 1.67-2.41c.38-.55 1.15-.69 1.7-.31.12.08.22.19.31.31l5.56 8s3.27 4.71 3.27 4.71l7.81 11.24 11.84-16.9c.39-.55 1.15-.69 1.7-.3.12.08.22.18.3.3l7.6 10.84.44.62 7.34 10.47z" fill="#3f3d56"/><path d="m44.51 61.56c-2.31 0-4.49 1.08-5.89 2.93-2.46-1.06-5.32.08-6.38 2.54-.26.61-.4 1.26-.4 1.92h20.04c0-4.08-3.31-7.38-7.38-7.38z" fill="#ccc"/><path d="m77.09 85.49h-64.34c-2.67 0-4.83-2.16-4.84-4.83v-36.67c0-2.67 2.17-4.83 4.84-4.84h64.34c2.67 0 4.83 2.17 4.84 4.84v36.67c0 2.67-2.16 4.83-4.83 4.84h-.01zm-64.34-46.06c-2.51 0-4.54 2.04-4.54 4.54v36.67c0 2.51 2.03 4.54 4.53 4.54h64.34c2.51 0 4.54-2.03 4.54-4.53v-36.68c0-2.51-2.04-4.54-4.54-4.54z" fill="#3f3d56"/></svg>