<?xml version="1.0" encoding="UTF-8"?>
<svg id="_レイヤー_2" data-name="レイヤー 2" xmlns="http://www.w3.org/2000/svg" viewBox="0 0 122.82 117.88">
  <defs>
    <style>
      .cls-1 {
        fill: #2f2e41;
      }

      .cls-1, .cls-2, .cls-3, .cls-4, .cls-5, .cls-6, .cls-7 {
        stroke-width: 0px;
      }

      .cls-2 {
        fill: #3f3d56;
      }

      .cls-3 {
        fill: #1da9b3;
      }

      .cls-4 {
        fill: #ccc;
      }

      .cls-5 {
        fill: #feb8b8;
      }

      .cls-6 {
        fill: #fff;
      }

      .cls-7 {
        fill: #e6e6e6;
      }
    </style>
  </defs>
  <g id="_ワイヤーPC" data-name="ワイヤーPC">
    <g id="Group_29" data-name="Group 29">
      <path id="Path_339-453" data-name="Path 339-453" class="cls-2" d="m71.77,27.94h-.65V10.24C71.12,4.59,66.54,0,60.88,0H23.38c-5.66,0-10.24,4.59-10.24,10.24h0v97.09c0,5.66,4.59,10.24,10.24,10.24h37.5c5.66,0,10.24-4.59,10.24-10.24V40.54h.65v-12.6Z"/>
      <path id="Path_340-454" data-name="Path 340-454" class="cls-6" d="m69.03,9.56v98.46c0,4.29-3.48,7.77-7.77,7.77H23c-4.29,0-7.77-3.48-7.77-7.77V9.56c0-4.29,3.48-7.77,7.77-7.77h4.64c-.77,1.89.14,4.04,2.03,4.81.44.18.91.27,1.39.27h21.82c2.04,0,3.69-1.66,3.69-3.7,0-.48-.09-.95-.27-1.39h4.97c4.29,0,7.77,3.48,7.77,7.77h0Z"/>
      <g id="Group_26" data-name="Group 26">
        <path id="Path_45-455" data-name="Path 45-455" class="cls-7" d="m42.54,48.95c-9.07,0-16.43-7.35-16.43-16.42h0s0-.09,0-.12c.05-9,7.42-16.33,16.43-16.33,9.08,0,16.43,7.36,16.43,16.43,0,9.08-7.36,16.43-16.43,16.43h0Zm0-32.52c-8.84.02-16.02,7.15-16.09,15.99,0,.04,0,.07,0,.09,0,8.89,7.2,16.09,16.09,16.09,8.89,0,16.09-7.2,16.09-16.09,0-8.89-7.2-16.09-16.09-16.09h0Z"/>
        <g id="Group_27" data-name="Group 27">
          <circle id="Ellipse_7" data-name="Ellipse 7" class="cls-2" cx="35.36" cy="28.85" r="3.53"/>
          <path id="Path_63-456" data-name="Path 63-456" class="cls-3" d="m46.42,39.72h-17.3s-.04,0-.06,0l8.18-14.18c.16-.28.51-.37.78-.22.09.05.17.13.22.22l5.49,9.51.26.46,2.43,4.21Z"/>
          <path id="Path_65-457" data-name="Path 65-457" class="cls-3" d="m56.05,39.72h-14.97l2.9-4.21.21-.3,3.78-5.49c.26-.33.74-.39,1.07-.12.02.02.04.04.06.05.02.02.04.04.05.07l6.89,10.01Z"/>
        </g>
      </g>
      <path id="Path_39-458" data-name="Path 39-458" class="cls-7" d="m59.54,66.23H25.53c-.35,0-.63-.28-.63-.63v-8.43c0-.35.28-.63.63-.63h34c.35,0,.63.28.63.63v8.43c0,.35-.28.63-.63.63h0Zm-34-9.44c-.21,0-.38.17-.38.38v8.43c0,.21.17.38.38.38h34c.21,0,.38-.17.38-.38v-8.43c0-.21-.17-.38-.38-.38H25.53Z"/>
      <circle id="Ellipse_5" data-name="Ellipse 5" class="cls-3" cx="29.94" cy="61.38" r="2.64"/>
      <path id="Path_40-459" data-name="Path 40-459" class="cls-7" d="m36.05,59.62c-.24,0-.44.2-.44.44s.2.44.44.44h20.78c.24,0,.45-.18.46-.42,0-.24-.18-.45-.42-.46,0,0-.01,0-.02,0h-20.79Z"/>
      <path id="Path_41-460" data-name="Path 41-460" class="cls-7" d="m36.05,62.26c-.24,0-.44.2-.44.44s.2.44.44.44h20.78c.24,0,.45-.18.46-.42,0-.24-.18-.45-.42-.46,0,0-.01,0-.02,0h-20.79Z"/>
      <path id="Path_42-461" data-name="Path 42-461" class="cls-7" d="m59.54,80.33H25.53c-.35,0-.63-.28-.63-.63v-8.43c0-.35.28-.63.63-.63h34c.35,0,.63.28.63.63v8.43c0,.35-.28.63-.63.63Zm-34-9.44c-.21,0-.38.17-.38.38v8.43c0,.21.17.38.38.38h34c.21,0,.38-.17.38-.38v-8.43c0-.21-.17-.38-.38-.38H25.53Z"/>
      <circle id="Ellipse_6" data-name="Ellipse 6" class="cls-3" cx="29.94" cy="75.48" r="2.64"/>
      <path id="Path_43-462" data-name="Path 43-462" class="cls-7" d="m36.05,73.72c-.24,0-.44.2-.44.44s.2.44.44.44h20.78c.24,0,.44-.2.44-.44,0-.24-.19-.43-.42-.44h-20.79Z"/>
      <path id="Path_44-463" data-name="Path 44-463" class="cls-7" d="m36.05,76.37c-.24,0-.44.2-.44.44s.2.44.44.44h20.78c.24,0,.44-.2.44-.44,0-.24-.19-.43-.42-.44h-20.79Z"/>
      <path id="Path_39-2-464" data-name="Path 39-2-464" class="cls-7" d="m59.54,94.44H25.53c-.35,0-.63-.28-.63-.63v-8.43c0-.35.28-.63.63-.63h34c.35,0,.63.28.63.63v8.43c0,.35-.28.63-.63.63h0Zm-34-9.44c-.21,0-.38.17-.38.38v8.43c0,.21.17.38.38.38h34c.21,0,.38-.17.38-.38v-8.43c0-.21-.17-.38-.38-.38H25.53Z"/>
      <circle id="Ellipse_5-2" data-name="Ellipse 5-2" class="cls-3" cx="29.94" cy="89.59" r="2.64"/>
      <path id="Path_40-2-465" data-name="Path 40-2-465" class="cls-7" d="m36.05,87.83c-.24,0-.44.2-.44.44s.2.44.44.44h20.78c.24,0,.45-.18.46-.42,0-.24-.18-.45-.42-.46,0,0-.01,0-.02,0h-20.79Z"/>
      <path id="Path_41-2-466" data-name="Path 41-2-466" class="cls-7" d="m36.05,90.47c-.24,0-.44.2-.44.44s.2.44.44.44h20.78c.24,0,.45-.18.46-.42,0-.24-.18-.45-.42-.46,0,0-.01,0-.02,0h-20.79Z"/>
      <g id="Group_28" data-name="Group 28">
        <path id="Path_409-467" data-name="Path 409-467" class="cls-5" d="m86.9,115.67h-2.06l-.98-7.95h3.04v7.95Z"/>
        <path id="Path_410-468" data-name="Path 410-468" class="cls-1" d="m87.42,117.67h-6.64v-.08c0-1.43,1.16-2.59,2.59-2.59h4.06v2.67Z"/>
        <path id="Path_411-469" data-name="Path 411-469" class="cls-5" d="m112.49,114.32l-2.01.47-2.78-7.51,2.96-.7,1.82,7.74Z"/>
        <path id="Path_412-470" data-name="Path 412-470" class="cls-1" d="m113.46,116.15l-6.47,1.52-.02-.08c-.33-1.39.53-2.78,1.92-3.11,0,0,0,0,0,0h0l3.95-.93.61,2.6Z"/>
        <path id="Path_413-471" data-name="Path 413-471" class="cls-1" d="m86.48,82.16c0-.41.13-10.19,2.81-13.88l.04-.05,9.34,1.29-.21,2.05c.41.4,3.64,3.77,4.57,11.77l9.91,26.61-4.61.42-13.64-29.05-7.22,31.58h-4.57l3.57-30.73Z"/>
        <path id="Path_414-472" data-name="Path 414-472" class="cls-4" d="m88.19,68.63l.91-4.79c-.18-.23-.97-1.33-.79-2.63.11-.84.62-1.59,1.5-2.2l2.37-5.52.03-.02c.16-.09,3.93-2.27,5.98-.22.05.04,5.11,4.05,3.08,9.47l-2.51,7.52-10.56-1.61Z"/>
        <path id="Path_415-473" data-name="Path 415-473" class="cls-5" d="m85.01,75.12c.93-.11,1.6-.95,1.49-1.88-.01-.1-.03-.2-.06-.29l4.88-3.52-2.92-1.11-4.19,3.51c-.88.33-1.33,1.31-1,2.19.28.73,1.02,1.18,1.79,1.09h0Z"/>
        <path id="Path_416-474" data-name="Path 416-474" class="cls-4" d="m85.91,69.42l7.46-5.88-2.22-7.57c-.21-.73-.11-1.51.27-2.15.36-.61.96-1.04,1.65-1.19,1.28-.27,2.44.44,3.44,2.13v.02c.17.41,4.06,10.01,1.09,12.07-2.9,2.01-9.63,4.93-9.7,4.96l-.08.03-1.93-2.41Z"/>
        <circle id="Ellipse_66" data-name="Ellipse 66" class="cls-5" cx="95.82" cy="46.74" r="4.52"/>
        <circle id="Ellipse_67" data-name="Ellipse 67" class="cls-1" cx="102.9" cy="41.13" r="4"/>
        <path id="Path_417-475" data-name="Path 417-475" class="cls-1" d="m106.35,44.44c-1.79,1.29-4.29.89-5.58-.9-.26-.36-.46-.77-.59-1.2.27,2.19,2.27,3.74,4.46,3.47,2.19-.27,3.74-2.27,3.47-4.46-.03-.22-.07-.43-.14-.64.18,1.45-.44,2.88-1.63,3.74Z"/>
        <path id="Path_418-476" data-name="Path 418-476" class="cls-1" d="m90.58,44.45c.7-1.25.96-1.77,1.86-2.53.8-.67,1.77-.87,2.56-.23,2.41-1.05,5.21.05,6.26,2.45,1.05,2.41-.05,5.21-2.45,6.26-2.41,1.05-5.21-.05-6.26-2.45-.34-.77-.46-1.62-.37-2.45-.69-.1-.92-.94-1.61-1.04Z"/>
      </g>
      <path id="Path_419-477" data-name="Path 419-477" class="cls-7" d="m122.5,117.88H.32c-.18,0-.32-.08-.32-.17s.14-.17.32-.17h122.18c.18,0,.32.08.32.17s-.14.17-.32.17Z"/>
    </g>
  </g>
</svg>