<?xml version="1.0" encoding="UTF-8"?>
<svg id="_レイヤー_2" data-name="レイヤー 2" xmlns="http://www.w3.org/2000/svg" viewBox="0 0 108.31 70.09">
  <defs>
    <style>
      .cls-1 {
        fill: #f2f2f2;
      }

      .cls-1, .cls-2, .cls-3, .cls-4, .cls-5, .cls-6, .cls-7 {
        stroke-width: 0px;
      }

      .cls-2 {
        fill: #2f2e41;
      }

      .cls-3 {
        fill: #3f3d56;
      }

      .cls-4 {
        fill: #1da9b3;
      }

      .cls-5 {
        fill: #cacaca;
      }

      .cls-6 {
        fill: #ffb8b8;
      }

      .cls-7 {
        fill: #e6e6e6;
      }
    </style>
  </defs>
  <g id="_ワイヤーSP" data-name="ワイヤーSP">
    <g>
      <path class="cls-5" d="m81.81,55.81h0c-.3-2-.37-4.02-.23-6.04l.23-3.33h0c-1.29,2.56-1,5.93,0,9.37h0Z"/>
      <path class="cls-5" d="m82.81,56.37h0c-.14-1.19-.18-2.39-.11-3.59l.11-1.98h0c-.62,1.52-.48,3.53,0,5.58Z"/>
      <path class="cls-1" d="m87.27,58.82v1.12c0,.18-.15.33-.33.33h-.56c-.06,0-.11.05-.11.11h0v9.15c0,.18-.15.33-.33.33h-6.8c-.18,0-.33-.15-.33-.33v-9.15c0-.06-.05-.11-.11-.11h-.67c-.18,0-.33-.15-.33-.33v-1.12c0-.18.15-.33.33-.33h8.92c.18,0,.33.15.33.33Z"/>
      <rect class="cls-7" x="78.81" y="60.51" width="7.47" height=".33"/>
      <path class="cls-7" d="m86.27,65.43c-2.5,1.03-5.03,1.05-7.58,0v-2.36c2.46-.83,5.12-.83,7.58,0v2.36Z"/>
      <circle class="cls-2" cx="50.36" cy="23.87" r="4.06"/>
      <path class="cls-2" d="m51.49,19.92c2.24,0,4.06,1.82,4.06,4.06,0,.67-.17,1.33-.49,1.93,1.4-1.75,1.11-4.3-.64-5.7-1.75-1.4-4.3-1.11-5.7.64-.15.19-.29.39-.4.61.77-.97,1.94-1.53,3.17-1.53Z"/>
      <circle class="cls-2" cx="42.77" cy="11.93" r="11.92"/>
      <path class="cls-2" d="m33.41,4.53c4.27-4.8,11.58-5.36,16.53-1.25-.1-.09-.19-.19-.3-.28-4.92-4.37-12.46-3.93-16.83,1-4.37,4.92-3.93,12.45.99,16.83.1.09.21.17.31.26-4.66-4.43-4.96-11.75-.69-16.56Z"/>
      <circle class="cls-6" cx="42.67" cy="16.08" r="7.68"/>
      <path class="cls-5" d="m46.59,25.84l-8.22.37s.69,4.25-3.76,4.65c-4.45.4-8.49-.81-10.11,2.22-1.62,3.03-.92,13.83-.92,13.83,0,0,3.03,10.91,5.46,12.53s23.65-.61,23.65-.61l8.88-11.21-.3-8.65c-.16-4.52-4.28-7.91-8.72-7.07-.09.02-.18.03-.26.05-.13.03-.98-.73-3.65-2.07-1.64-.82-2.04-4.05-2.04-4.05Z"/>
      <path class="cls-2" d="m28.75,30.66s1.95,3.54,1.14,8.6c-.81,5.05,2.58,15.74,2.58,15.74l2.43-.61s-1.62-10.51-1.21-12.94.52-9.58-1.51-10.8c-2.02-1.21-3.44,0-3.44,0Z"/>
      <path class="cls-2" d="m52.15,32.52l.85,22.38,1.62,1.01s2.32-24.56,1.11-24.56h-2.47c-.61,0-1.11.5-1.11,1.11h0s0,.04,0,.06Z"/>
      <circle class="cls-4" cx="33.59" cy="53.48" r="1.01"/>
      <circle class="cls-4" cx="53.8" cy="54.5" r="1.01"/>
      <polygon class="cls-2" points="36.1 6.48 36.1 14.16 37.88 14.16 40.14 11.73 39.84 14.16 47.7 14.16 47.22 11.73 48.19 14.16 49.44 14.16 49.44 6.48 36.1 6.48"/>
      <ellipse class="cls-6" cx="34.89" cy="14.46" rx=".61" ry="1.11"/>
      <ellipse class="cls-6" cx="50.45" cy="14.46" rx=".61" ry="1.11"/>
      <path class="cls-3" d="m67.27,67.86v.68c0,.19-.03.37-.1.54-.03.08-.07.15-.11.22-.27.45-.76.73-1.29.73H15.97c-.53,0-1.02-.28-1.29-.73-.04-.07-.08-.15-.11-.22-.07-.17-.1-.36-.1-.54v-.68c0-.83.67-1.5,1.5-1.5h2.87v-.32s.03-.06.06-.06h1.5s.06.03.06.06v.32h.94v-.32s.03-.06.06-.06h1.5s.06.03.06.06v.32h.94v-.32s.03-.06.06-.06h1.5s.06.03.06.06v.32h.94v-.32s.03-.06.06-.06h1.5s.06.03.06.06v.32h.94v-.32s.03-.06.06-.06h1.5s.06.03.06.06v.32h.94v-.32s.03-.06.06-.06h1.5s.06.03.06.06v.32h.94v-.32s.03-.06.06-.06h11.73s.06.03.06.06h0v.32h.94v-.32s.03-.06.06-.06h1.5s.06.03.06.06v.32h.94v-.32s.03-.06.06-.06h1.5s.06.03.06.06h0v.32h.94v-.32s.03-.06.06-.06h1.5s.06.03.06.06h0v.32h.94v-.32s.03-.06.06-.06h1.5s.06.03.06.06v.32h.94v-.32s.03-.06.06-.06h1.5s.06.03.06.06h0v.32h.94v-.32s.03-.06.06-.06h1.5s.06.03.06.06h0v.32h4.37c.83,0,1.5.67,1.5,1.5h0Z"/>
      <rect class="cls-3" y="69.86" width="108.31" height=".22"/>
      <path class="cls-3" d="m63.26,39.35H17.64c-.69,0-1.26.56-1.26,1.26h0v25.42c0,.69.56,1.26,1.26,1.26h45.62c.69,0,1.26-.56,1.26-1.26v-25.42c0-.69-.56-1.26-1.26-1.26h0Z"/>
      <circle class="cls-4" cx="40.49" cy="48.23" r="2.79"/>
      <polygon class="cls-3" points="57.75 29.8 71.83 15.62 78.47 15.62 78.47 15.39 71.73 15.39 71.7 15.43 57.59 29.65 57.75 29.8"/>
      <rect class="cls-4" x="86.59" y="9.79" width="16.31" height="1.45"/>
      <path class="cls-3" d="m84.6,12.16h-3.45v-3.45h3.45v3.45Zm-3.23-.22h3.01v-3.01h-3.01v3.01Z"/>
      <rect class="cls-4" x="86.59" y="14.64" width="16.31" height="1.45"/>
      <path class="cls-3" d="m84.6,17.01h-3.45v-3.45h3.45v3.45Zm-3.23-.22h3.01v-3.01h-3.01v3.01Z"/>
      <rect class="cls-4" x="86.59" y="19.48" width="16.31" height="1.45"/>
      <path class="cls-3" d="m84.6,21.85h-3.45v-3.45h3.45v3.45Zm-3.23-.22h3.01v-3.01h-3.01v3.01Z"/>
    </g>
  </g>
</svg>