<svg viewBox="0 0 160 95.43" xmlns="http://www.w3.org/2000/svg"><path d="m9.43 73.21c-4.71-1.71-8.8-5.81-9.32-10.8 4.57 2.97 10.05 4.22 15.45 3.54 2.08-.27 4.37-.79 6.16.32 1.11.69 1.8 1.92 2.11 3.19.32 1.27.3 2.59.29 3.9l.15.29c-4.92.95-10.13 1.26-14.84-.45z" fill="#f0f0f0"/><path d="m.21 62.39c2.4 3.38 5.8 5.92 9.73 7.26.84.3 1.72.47 2.62.5.87 0 1.72-.23 2.47-.68.71-.4 1.38-.89 2.18-1.11.82-.22 1.7-.07 2.41.4.89.56 1.52 1.4 2.11 2.25.66.94 1.33 1.93 2.35 2.5.12.07 0 .26-.11.19-1.79-.99-2.45-3.1-3.97-4.38-.71-.6-1.6-.98-2.54-.79-.82.17-1.52.67-2.23 1.08-.72.44-1.55.7-2.39.75-.89.02-1.78-.12-2.62-.4-1.91-.6-3.72-1.5-5.36-2.66-1.87-1.32-3.51-2.94-4.84-4.81-.08-.12.11-.22.19-.11z" fill="#fff"/><path d="m8.66 69.29c-.65 1.3-2.14 1.93-3.53 1.5-.14-.04-.08-.26.06-.21 1.29.4 2.68-.19 3.28-1.41.06-.13.25-.01.19.11z" fill="#fff"/><path d="m14.7 69.72c-.44-1.37-1.38-2.51-2.63-3.22-.12-.07 0-.26.11-.19 1.3.73 2.28 1.93 2.73 3.35.04.14-.17.19-.21.05z" fill="#fff"/><path d="m3.23 65.84c.35-.44.45-1.03.28-1.57-.05-.13.17-.19.21-.05.19.59.08 1.24-.3 1.73-.03.05-.1.07-.15.04s-.07-.1-.04-.15z" fill="#fff"/><path d="m12 50.3c.03.08.06.17.09.25.42 1.12.92 2.2 1.52 3.24.04.08.09.16.14.24 1.45 2.49 3.36 4.68 5.61 6.47.9.71 1.85 1.35 2.85 1.92 1.38.78 2.93 1.52 3.94 2.68.11.12.21.25.3.38l-1.82 7.96s-.02.03-.04.05l-.06.32c-.05-.03-.11-.05-.16-.08-.03-.01-.06-.03-.09-.05-.02-.01-.04-.02-.06-.03 0 0-.01 0-.02 0-.02 0-.04-.02-.05-.03-.31-.15-.61-.31-.92-.47t0 0c-2.34-1.19-4.53-2.66-6.53-4.36-.06-.05-.12-.1-.18-.16-.88-.78-1.69-1.63-2.43-2.54-.4-.5-.78-1.02-1.13-1.56-.9-1.4-1.58-2.92-2.01-4.53-.85-3.2-.67-6.64.95-9.48.04-.07.08-.14.13-.22z" fill="#f0f0f0"/><path d="m12.09 50.35c-.12 4.15 1.07 8.22 3.4 11.66.49.75 1.09 1.41 1.79 1.97.7.52 1.52.85 2.38.95.8.11 1.64.12 2.4.43.79.32 1.4.97 1.68 1.77.37.98.37 2.04.34 3.07-.04 1.15-.1 2.34.37 3.41.06.13-.15.21-.21.08-.83-1.87-.09-3.95-.53-5.88-.21-.9-.69-1.75-1.55-2.16-.76-.36-1.62-.38-2.43-.48-.85-.08-1.66-.37-2.36-.84-.72-.52-1.35-1.16-1.86-1.9-1.17-1.63-2.07-3.44-2.68-5.35-.7-2.18-1.03-4.46-.96-6.75 0-.14.22-.11.22.03z" fill="#fff"/><path d="m14.68 60.94c-1.3.65-2.87.26-3.72-.92-.08-.12.09-.25.18-.13.79 1.1 2.26 1.46 3.46.85.13-.06.21.14.08.21z" fill="#fff"/><path d="m19.25 64.92c.47-1.36.41-2.84-.17-4.16-.06-.13.15-.21.21-.08.6 1.37.66 2.91.16 4.32-.05.13-.25.05-.2-.09z" fill="#fff"/><path d="m12.43 54.91c.55-.14.98-.55 1.16-1.08.05-.13.25-.05.2.09-.2.59-.68 1.04-1.28 1.2-.06.02-.12 0-.14-.06s0-.12.06-.14z" fill="#fff"/><path d="m151.97 73.04c4.46-2.28 8.02-6.85 7.92-11.86-4.17 3.51-9.45 5.42-14.9 5.41-2.1-.01-4.44-.24-6.07 1.08-1.02.82-1.55 2.13-1.71 3.42-.16 1.3.02 2.61.2 3.91l-.11.31c5 .34 10.21 0 14.67-2.27z" fill="#f0f0f0"/><path d="m159.78 61.17c-1.97 3.65-5.03 6.59-8.76 8.4-.8.4-1.65.68-2.53.82-.86.11-1.74-.02-2.54-.37-.75-.31-1.48-.71-2.3-.83-.84-.11-1.69.14-2.34.69-.81.66-1.34 1.58-1.82 2.49-.54 1.01-1.08 2.07-2.03 2.77-.11.08.02.26.14.17 1.65-1.2 2.05-3.37 3.4-4.83.63-.68 1.47-1.17 2.42-1.1.83.07 1.59.48 2.35.8.77.35 1.62.51 2.47.45.89-.09 1.75-.33 2.56-.72 1.83-.83 3.51-1.95 4.99-3.3 1.7-1.54 3.12-3.35 4.21-5.37.07-.12-.14-.2-.21-.08z" fill="#fff"/><path d="m152.25 69.06c.8 1.21 2.36 1.66 3.68 1.06.13-.06.04-.26-.09-.2-1.23.56-2.68.14-3.43-.99-.08-.12-.25.02-.17.14z" fill="#fff"/><path d="m146.3 70.23c.27-1.41 1.06-2.67 2.22-3.52.11-.08-.02-.26-.14-.17-1.2.89-2.02 2.2-2.3 3.66-.03.14.19.17.22.03z" fill="#fff"/><path d="m157.21 64.97c-.4-.4-.58-.97-.47-1.52.03-.14-.19-.16-.22-.03-.12.61.07 1.24.51 1.68.04.05.11.05.16.02.05-.04.06-.11.02-.16z" fill="#fff"/><path d="m146.6 50.63c-.02.09-.04.17-.06.26-.28 1.16-.65 2.3-1.11 3.4-.03.09-.07.17-.11.26-1.14 2.65-2.76 5.06-4.78 7.11-.8.82-1.67 1.57-2.59 2.26-1.27.95-2.72 1.87-3.58 3.15-.09.13-.17.27-.25.41l2.79 7.68s.03.03.04.04l.1.31s.1-.07.15-.1c.03-.02.06-.04.09-.06.02-.01.04-.03.06-.04 0 0 .01 0 .02-.01.02-.01.03-.02.05-.03.29-.19.57-.38.85-.58t0 0c2.18-1.47 4.17-3.19 5.95-5.13.05-.06.11-.12.16-.18.78-.88 1.48-1.83 2.1-2.82.34-.55.65-1.11.93-1.69.73-1.5 1.21-3.1 1.44-4.74.45-3.28-.15-6.67-2.1-9.29-.05-.07-.1-.13-.15-.2z" fill="#f0f0f0"/><path d="m146.51 50.68c.63 4.1-.05 8.29-1.94 11.99-.39.8-.91 1.54-1.53 2.18-.63.61-1.4 1.03-2.25 1.24-.79.21-1.61.33-2.33.72-.74.42-1.27 1.13-1.45 1.96-.25 1.02-.12 2.07.04 3.09.18 1.13.39 2.31.05 3.43-.04.14.17.19.21.06.59-1.95-.4-3.93-.2-5.9.09-.92.47-1.82 1.27-2.33.71-.45 1.56-.57 2.36-.77.83-.19 1.6-.57 2.24-1.13.65-.61 1.2-1.32 1.61-2.11.96-1.76 1.63-3.67 2-5.64.43-2.25.47-4.56.13-6.82-.02-.14-.23-.08-.21.06z" fill="#fff"/><path d="m145.25 61.51c1.37.48 2.88-.1 3.58-1.37.07-.12-.12-.24-.19-.11-.65 1.19-2.06 1.73-3.33 1.27-.13-.05-.19.17-.06.21z" fill="#fff"/><path d="m141.2 66.03c-.63-1.29-.76-2.77-.35-4.14.04-.14-.17-.19-.21-.06-.42 1.43-.29 2.97.37 4.31.06.13.25.02.19-.11z" fill="#fff"/><path d="m146.74 55.26c-.56-.07-1.04-.43-1.29-.93-.06-.13-.25-.02-.19.11.27.56.81.95 1.42 1.04.06.01.12-.02.13-.08.02-.06-.02-.12-.08-.13z" fill="#fff"/><path d="m139.37 3.28h-31.44v2.02c0 .1.04.2.1.28-.06 1.58-.1 3.6-.1 5.79v54.08c0 5.07.2 9.19.45 9.19h30.54c.25 0 .45-4.12.45-9.19v-54.07c0-2.19-.04-4.21-.1-5.79.07-.08.1-.18.1-.28v-2.02z" fill="#fff"/><path d="m138.92 74.87h-30.54c-.24 0-.4 0-.54-2.9-.09-1.74-.13-4.05-.13-6.51v-54.08c0-2.12.04-4.18.1-5.8.04-.97.09-1.75.14-2.32.1-1.11.2-1.29.43-1.29h30.54c.24 0 .33.19.43 1.29.05.57.1 1.35.14 2.32.06 1.62.1 3.68.1 5.8v54.08c0 2.45-.05 4.77-.13 6.51-.14 2.9-.3 2.9-.54 2.9zm-30.41-.44h30.29c.16-.6.36-3.84.36-8.97v-54.08c0-2.12-.04-4.17-.1-5.78-.04-.96-.09-1.74-.14-2.3-.02-.3-.06-.6-.12-.89h-30.29c-.06.29-.1.59-.12.89-.05.56-.1 1.33-.14 2.3-.06 1.62-.1 3.67-.1 5.78v54.08c0 5.13.2 8.38.36 8.97z" fill="#e4e4e4"/><path d="m138.92 2.19h-30.54c-.25 0-.45.2-.45.45v2.66c0 .1.04.2.1.28.09.11.22.17.35.17h30.54c.14 0 .27-.06.35-.17.07-.08.1-.18.1-.28v-2.66c0-.25-.2-.45-.45-.45z" fill="#cacaca"/><g fill="#fff"><circle cx="110.56" cy="3.84" r=".64"/><circle cx="113" cy="3.84" r=".64"/><circle cx="115.44" cy="3.84" r=".64"/><path d="m136.53 2.98h-2.81c-.11 0-.21.09-.21.21 0 .03 0 .06.02.09.03.07.11.12.19.12h2.81c.08 0 .15-.05.19-.12.01-.03.02-.06.02-.09 0-.11-.09-.21-.21-.21z"/><path d="m136.53 3.76h-2.81c-.11 0-.21.09-.21.21 0 .11.09.21.21.21h2.81c.11 0 .21-.09.21-.21 0-.11-.09-.21-.21-.21z"/><path d="m136.53 4.54h-2.81c-.11 0-.21.09-.21.21 0 .11.09.21.21.21h2.81c.11 0 .21-.09.21-.21 0-.11-.09-.21-.21-.21z"/></g><path d="m126.69 11.59h-5.78c-.6 0-1.09.49-1.09 1.09v5.01c0 .6.49 1.09 1.09 1.09h5.78c.6 0 1.09-.49 1.09-1.09v-5.01c0-.6-.49-1.09-1.09-1.09z" fill="#1da9b3"/><path d="m133.87 22.06h-20.15c-.27 0-.5.22-.5.5s.22.5.5.5h20.15c.27 0 .5-.22.5-.5s-.22-.5-.5-.5z" fill="#e4e4e4"/><path d="m121.37 24.39h-7.65c-.27 0-.5.22-.5.5s.22.5.5.5h7.65c.27 0 .5-.22.5-.5s-.22-.5-.5-.5z" fill="#e4e4e4"/><path d="m126.69 33.24h-5.78c-.6 0-1.09.49-1.09 1.09v5.01c0 .6.49 1.09 1.09 1.09h5.78c.6 0 1.09-.49 1.09-1.09v-5.01c0-.6-.49-1.09-1.09-1.09z" fill="#1da9b3"/><path d="m133.87 43.71h-20.15c-.27 0-.5.22-.5.5s.22.5.5.5h20.15c.27 0 .5-.22.5-.5s-.22-.5-.5-.5z" fill="#e4e4e4"/><path d="m121.37 46.04h-7.65c-.27 0-.5.22-.5.5s.22.5.5.5h7.65c.27 0 .5-.22.5-.5s-.22-.5-.5-.5z" fill="#e4e4e4"/><path d="m126.69 54.89h-5.78c-.6 0-1.09.49-1.09 1.09v5.01c0 .6.49 1.09 1.09 1.09h5.78c.6 0 1.09-.49 1.09-1.09v-5.01c0-.6-.49-1.09-1.09-1.09z" fill="#1da9b3"/><path d="m133.87 65.36h-20.15c-.27 0-.5.22-.5.49s.22.5.49.5h20.15c.27 0 .5-.22.5-.49s-.22-.5-.49-.5z" fill="#e4e4e4"/><path d="m121.37 67.69h-7.65c-.27 0-.5.22-.5.49s.22.5.49.5h7.66c.27 0 .5-.22.5-.49s-.22-.5-.49-.5z" fill="#e4e4e4"/><path d="m99.35.67c0-.25-.2-.45-.45-.45h-80.83c-.25 0-.45.2-.45.45v2.66c0 .11.04.22.12.3-.07 1.81-.12 4.19-.12 6.8v60.12c0 5.64.2 10.22.45 10.22h80.84c.25 0 .45-4.58.45-10.22v-60.11c0-2.61-.04-4.99-.12-6.8.07-.08.12-.19.12-.3v-2.67z" fill="#fff"/><path d="m98.9 80.99h-80.83c-.25 0-.4 0-.54-3.21-.09-1.94-.13-4.51-.13-7.23v-60.11c0-2.52.04-4.94.12-6.81.14-3.63.31-3.63.56-3.63h80.84c.25 0 .41 0 .56 3.63.07 1.87.12 4.29.12 6.81v60.12c0 2.73-.05 5.3-.13 7.23-.14 3.21-.29 3.21-.54 3.21zm-80.71-.44h80.58c.18-.69.36-4.54.36-10v-60.11c0-2.51-.04-4.93-.12-6.79-.09-2.3-.2-3-.25-3.21h-80.56c-.05.21-.16.91-.25 3.21-.07 1.87-.12 4.28-.12 6.79v60.12c0 5.47.18 9.32.36 10z" fill="#e4e4e4"/><path d="m98.9.22h-80.83c-.25 0-.45.2-.45.45v2.66c0 .11.04.22.12.3.09.1.21.15.34.15h80.84c.13 0 .25-.06.34-.15.07-.08.12-.19.12-.3v-2.66c0-.25-.2-.45-.45-.45z" fill="#cacaca"/><circle cx="20.24" cy="1.87" fill="#fff" r=".64"/><circle cx="22.68" cy="1.87" fill="#fff" r=".64"/><circle cx="25.12" cy="1.87" fill="#fff" r=".64"/><path d="m96.51 1.01h-2.81c-.11 0-.21.09-.21.21 0 .11.09.21.21.21h2.81c.11 0 .21-.09.21-.21 0-.11-.09-.21-.21-.21z" fill="#fff"/><path d="m96.51 1.8h-2.81c-.11 0-.21.09-.21.21 0 .11.09.21.21.21h2.81c.11 0 .21-.09.21-.21 0-.11-.09-.21-.21-.21z" fill="#fff"/><path d="m96.51 2.58h-2.81c-.11 0-.21.09-.21.21 0 .11.09.21.21.21h2.81c.11 0 .21-.09.21-.21 0-.11-.09-.21-.21-.21z" fill="#fff"/><path d="m44.19 13.56h-9.46c-.99 0-1.79.8-1.79 1.79v8.19c0 .99.8 1.79 1.79 1.79h9.46c.99 0 1.79-.8 1.79-1.79v-8.19c0-.99-.8-1.79-1.79-1.79z" fill="#1da9b3"/><path d="m83.21 16.73h-32.97c-.45 0-.81.36-.81.81s.36.81.81.81h32.97c.45 0 .81-.36.81-.81s-.36-.81-.81-.81z" fill="#e4e4e4"/><path d="m62.76 20.54h-12.52c-.45 0-.81.36-.81.81s.36.81.81.81h12.52c.45 0 .81-.36.81-.81s-.36-.81-.81-.81z" fill="#e4e4e4"/><path d="m44.19 35.43h-9.46c-.99 0-1.79.8-1.79 1.79v8.19c0 .99.8 1.79 1.79 1.79h9.46c.99 0 1.79-.8 1.79-1.79v-8.19c0-.99-.8-1.79-1.79-1.79z" fill="#1da9b3"/><path d="m83.21 38.6h-32.97c-.45 0-.81.36-.81.81s.36.81.81.81h32.97c.45 0 .81-.36.81-.81s-.36-.81-.81-.81z" fill="#e4e4e4"/><path d="m62.76 42.41h-12.52c-.45 0-.81.36-.81.81s.36.81.81.81h12.52c.45 0 .81-.36.81-.81s-.36-.81-.81-.81z" fill="#e4e4e4"/><path d="m44.19 57.3h-9.46c-.99 0-1.79.8-1.79 1.79v8.19c0 .99.8 1.79 1.79 1.79h9.46c.99 0 1.79-.8 1.79-1.79v-8.19c0-.99-.8-1.79-1.79-1.79z" fill="#1da9b3"/><path d="m83.21 60.47h-32.97c-.45 0-.81.36-.81.81s.36.81.81.81h32.97c.45 0 .81-.36.81-.81s-.36-.81-.81-.81z" fill="#e4e4e4"/><path d="m62.76 64.27h-12.52c-.45 0-.81.36-.81.81s.36.81.81.81h12.52c.45 0 .81-.36.81-.81s-.36-.81-.81-.81z" fill="#e4e4e4"/><path d="m113.33 95.21h-54.16c-.25 0-.45-3.84-.45-8.56v-50.33c0-4.72.2-8.56.45-8.56h54.16c.25 0 .45 3.84.45 8.56v50.33c0 4.72-.2 8.56-.45 8.56z" fill="#fff"/><path d="m113.33 95.43h-54.16c-.23 0-.39 0-.54-2.72-.09-1.62-.13-3.77-.13-6.06v-50.33c0-2.29.05-4.44.13-6.06.14-2.72.31-2.72.54-2.72h54.16c.23 0 .39 0 .54 2.72.09 1.62.13 3.77.13 6.06v50.33c0 2.29-.05 4.44-.13 6.06-.14 2.72-.31 2.72-.54 2.72zm-54.03-.44h53.91c.16-.57.36-3.59.36-8.34v-50.33c0-4.75-.2-7.77-.36-8.34h-53.91c-.16.57-.36 3.59-.36 8.34v50.33c0 4.75.2 7.77.36 8.34z" fill="#e4e4e4"/><path d="m113.33 31.34h-54.16c-.25 0-.45-.2-.45-.45v-2.66c0-.25.2-.45.45-.45h54.16c.25 0 .45.2.45.45v2.66c0 .25-.2.45-.45.45z" fill="#cacaca"/><circle cx="61.35" cy="29.43" fill="#fff" r=".64"/><circle cx="63.79" cy="29.43" fill="#fff" r=".64"/><circle cx="66.23" cy="29.43" fill="#fff" r=".64"/><path d="m110.94 28.98h-2.81c-.11 0-.21-.09-.21-.21s.09-.21.21-.21h2.81c.11 0 .21.09.21.21 0 .11-.09.21-.21.21z" fill="#fff"/><path d="m110.94 29.76h-2.81c-.11 0-.21-.09-.21-.21s.09-.21.21-.21h2.81c.11 0 .21.09.21.21s-.09.21-.21.21z" fill="#fff"/><path d="m110.94 30.55h-2.81c-.11 0-.21-.09-.21-.21s.09-.21.21-.21h2.81c.11 0 .21.09.21.21 0 .11-.09.21-.21.21z" fill="#fff"/><path d="m75.82 47.87h-6.91c-.72 0-1.31-.59-1.31-1.31v-5.98c0-.72.59-1.31 1.31-1.31h6.91c.72 0 1.31.59 1.31 1.31v5.98c0 .72-.59 1.31-1.31 1.31z" fill="#1da9b3"/><path d="m104.31 42.78h-24.08c-.33 0-.59-.27-.59-.59s.27-.59.59-.59h24.08c.33 0 .59.27.59.59s-.27.59-.59.59z" fill="#e4e4e4"/><path d="m89.38 45.56h-9.15c-.33 0-.59-.26-.59-.59s.26-.59.59-.59h9.15c.33 0 .59.26.59.59s-.26.59-.59.59z" fill="#e4e4e4"/><path d="m75.82 65.59h-6.91c-.72 0-1.31-.59-1.31-1.31v-5.98c0-.72.59-1.31 1.31-1.31h6.91c.72 0 1.31.59 1.31 1.31v5.98c0 .72-.59 1.31-1.31 1.31z" fill="#1da9b3"/><path d="m104.31 60.49h-24.08c-.33 0-.59-.27-.59-.59s.27-.59.59-.59h24.08c.33 0 .59.27.59.59s-.27.59-.59.59z" fill="#e4e4e4"/><path d="m89.38 63.27h-9.15c-.33 0-.59-.27-.59-.59s.27-.59.59-.59h9.15c.33 0 .59.27.59.59s-.27.59-.59.59z" fill="#e4e4e4"/><path d="m75.82 83.3h-6.91c-.72 0-1.31-.59-1.31-1.31v-5.98c0-.72.59-1.31 1.31-1.31h6.91c.72 0 1.31.59 1.31 1.31v5.98c0 .72-.59 1.31-1.31 1.31z" fill="#1da9b3"/><path d="m104.31 78.2h-24.08c-.33 0-.59-.27-.59-.59s.27-.59.59-.59h24.08c.33 0 .59.27.59.59s-.27.59-.59.59z" fill="#e4e4e4"/><path d="m89.38 80.98h-9.15c-.33 0-.59-.27-.59-.59s.27-.59.59-.59h9.15c.33 0 .59.27.59.59s-.27.59-.59.59z" fill="#e4e4e4"/></svg>