<?xml version="1.0" encoding="UTF-8"?>
<svg id="_レイヤー_2" data-name="レイヤー 2" xmlns="http://www.w3.org/2000/svg" viewBox="0 0 119.62 102.67">
  <defs>
    <style>
      .cls-1 {
        fill: #f2f2f2;
      }

      .cls-1, .cls-2, .cls-3, .cls-4, .cls-5, .cls-6 {
        stroke-width: 0px;
      }

      .cls-2 {
        fill: #3f3d56;
      }

      .cls-3 {
        fill: #1da9b3;
      }

      .cls-4 {
        fill: #ccc;
      }

      .cls-5 {
        fill: #fff;
      }

      .cls-6 {
        fill: #e6e6e6;
      }
    </style>
  </defs>
  <g id="_ワイヤーPC" data-name="ワイヤーPC">
    <g>
      <path class="cls-1" d="m85.02,102.32c-.86,0-1.7-.22-2.45-.63L12.75,63.5c-2.48-1.36-3.39-4.48-2.04-6.96L40.17,2.67c1.36-2.49,4.48-3.4,6.96-2.04,0,0,0,0,0,0l69.82,38.18c2.48,1.36,3.39,4.48,2.04,6.96l-29.46,53.87c-.65,1.2-1.75,2.08-3.06,2.46-.47.14-.96.21-1.45.21Zm-2.03-1.4c2.06,1.13,4.64.37,5.77-1.69l29.46-53.87c1.12-2.06.37-4.64-1.69-5.77L46.71,1.4c-2.06-1.13-4.64-.37-5.77,1.69L11.48,56.97c-1.12,2.06-.37,4.64,1.69,5.77l69.82,38.18Z"/>
      <path class="cls-1" d="m86.46,83.48c-.8,0-1.59-.2-2.3-.59l-56.45-30.87c-2.31-1.26-3.16-4.15-1.9-6.46,0,0,0,0,0,0L43.42,13.38c1.26-2.31,4.16-3.16,6.46-1.89,0,0,0,0,0,0l56.45,30.87c2.31,1.26,3.16,4.16,1.89,6.46,0,0,0,0,0,0l-.06-.04.06.04-17.6,32.18c-.83,1.53-2.43,2.48-4.17,2.48Z"/>
      <path class="cls-5" d="m84.71,102.31H5.13c-2.63,0-4.76-2.13-4.76-4.76v-61.4c0-2.63,2.13-4.76,4.76-4.76h79.58c2.63,0,4.76,2.13,4.76,4.76v61.4c0,2.63-2.13,4.76-4.76,4.76Z"/>
      <path class="cls-6" d="m84.71,102.67H5.13c-2.83,0-5.13-2.3-5.13-5.13v-61.4c0-2.83,2.3-5.13,5.13-5.13h79.58c2.83,0,5.13,2.3,5.13,5.13v61.4c0,2.83-2.3,5.13-5.13,5.13ZM5.13,31.89c-2.35,0-4.25,1.9-4.25,4.25v61.4c0,2.35,1.9,4.25,4.25,4.25h79.58c2.35,0,4.25-1.9,4.25-4.25v-61.4c0-2.35-1.9-4.25-4.25-4.25H5.13Z"/>
      <path class="cls-6" d="m57.3,51.57c-1.87,0-3.64.88-4.77,2.37-2-.86-4.31.06-5.17,2.06-.21.49-.32,1.02-.32,1.55h16.24c0-3.3-2.68-5.98-5.98-5.98h0Z"/>
      <circle class="cls-3" cx="21.72" cy="65.35" r="9.64"/>
      <path class="cls-2" d="m78.16,85.21c-.35.08-.72.13-1.08.12H12.75c-.79,0-1.57-.2-2.27-.58l.17-.25,7.18-10.34,10.64-15.31.16-.22,1.67-2.41c.38-.55,1.15-.69,1.7-.31.12.08.22.19.31.31l5.56,8h0s3.27,4.71,3.27,4.71l7.81,11.24,11.84-16.9c.39-.55,1.15-.69,1.7-.3.12.08.22.18.3.3l7.6,10.84.44.62,7.34,10.47Z"/>
      <path class="cls-4" d="m44.51,61.56c-2.31,0-4.49,1.08-5.89,2.93-2.46-1.06-5.32.08-6.38,2.54-.26.61-.4,1.26-.4,1.92h20.04c0-4.08-3.31-7.38-7.38-7.38h0Z"/>
      <path class="cls-2" d="m77.09,85.49H12.75c-2.67,0-4.83-2.16-4.84-4.83,0,0,0,0,0,0v-36.67c0-2.67,2.17-4.83,4.84-4.84h64.34c2.67,0,4.83,2.17,4.84,4.84v36.67c0,2.67-2.16,4.83-4.83,4.84h-.01ZM12.75,39.43c-2.51,0-4.54,2.04-4.54,4.54v36.67c0,2.51,2.03,4.54,4.53,4.54h64.34c2.51,0,4.54-2.03,4.54-4.53h0v-36.68c0-2.51-2.04-4.54-4.54-4.54H12.75Z"/>
    </g>
  </g>
</svg>