<svg viewBox="0 0 75.56 62.4" xmlns="http://www.w3.org/2000/svg"><path d="m30.34 7.36c1.09 1.34 2.42 2.43 3.87 3.32 2.02 1.24 4.2 2.03 6.07 2.48v-2.47c-1.73-2.38-2.97-5.29-3.08-8.7-.03-.89-.59-1.69-1.44-1.92-.59-.16-1.23-.02-1.64.46-1.04 1.21-2.55 3.5-3.78 6.85zm12.44 3.73v5.03c-4.75-.4-14.45-3.44-17.13-12.35-.26-.85-1-1.48-1.88-1.48-.62 0-1.2.31-1.47.86-.86 1.8-2.02 5.43-2.02 10.45 0 9.18 6.26 14.18 9.25 15.93l-10.83 2.97c-.4.11-.72.41-.85.8s-.06.83.18 1.16c1.45 1.93 5.79 5.53 12.25 5.53.28 0 .56-.09.78-.27l5.91-4.75h5.81c6.91 0 12.5-5.62 12.5-12.57v-12.57l2.34-3.53c.1-.16.16-.35.16-.53 0-.53-.43-.97-.96-.97h-7.79c-3.45 0-6.25 2.81-6.25 6.28zm6.25-1.26c.69 0 1.25.56 1.25 1.26s-.56 1.26-1.25 1.26-1.25-.56-1.25-1.26.56-1.26 1.25-1.26z" fill="#77cbd1"/><g fill="#b3b3b3"><path d="m2.63 58.81-2.63-4.56h1.03l2.04 3.57 2.06-3.57h1.03l-2.65 4.56v3.44h-.89v-3.44z"/><path d="m8.18 59.16c0 .67 0 1.4.64 1.94.32.28.88.46 1.32.46s1-.18 1.32-.46c.64-.54.64-1.27.64-1.94v-4.91h.89v5.15c0 .67-.07 1.32-.5 1.92-.48.66-1.32 1.08-2.34 1.08s-1.86-.42-2.34-1.08c-.43-.6-.5-1.25-.5-1.92v-5.15h.89v4.91z"/><path d="m15.94 57.68 3.41-3.43h1.2l-3.74 3.73 3.86 4.27h-1.22l-3.27-3.67-.23.23v3.44h-.89v-8h.89v3.43z"/><path d="m26.28 60h-3.41l-.96 2.25h-.98l3.68-8.38 3.59 8.38h-.98zm-.35-.84-1.34-3.2-1.37 3.2z"/><path d="m35.7 55.84c-.11-.22-.29-.46-.47-.6-.16-.12-.44-.28-.9-.28-.79 0-1.34.49-1.34 1.24 0 .31.08.49.3.7.24.24.54.37.84.5l.77.34c.47.2.9.42 1.24.76.41.41.58.88.58 1.45 0 1.48-1.09 2.46-2.53 2.46-.53 0-1.19-.11-1.74-.65-.4-.38-.64-.94-.74-1.42l.86-.24c.06.42.25.78.48 1.02.35.35.74.44 1.15.44 1.09 0 1.61-.78 1.61-1.58 0-.36-.11-.67-.4-.94-.23-.22-.54-.36-.96-.55l-.72-.34c-.31-.14-.71-.31-1.07-.66-.35-.34-.55-.71-.55-1.31 0-1.24.95-2.06 2.24-2.06.49 0 .89.1 1.28.36.32.22.6.54.78.89z"/><path d="m39.23 57.5h4.1v-3.25h.89v8h-.89v-3.91h-4.1v3.91h-.89v-8h.89z"/><path d="m47.17 54.25v8h-.89v-8z"/><path d="m53.36 58.24h3.33v.19c0 .89-.26 1.85-.77 2.53-.24.32-1.14 1.44-2.97 1.44-2.38 0-4.15-1.81-4.15-4.14s1.79-4.14 4.17-4.14c.77 0 1.67.19 2.45.79.36.28.7.64.92.95l-.66.6c-.23-.32-.49-.61-.76-.83-.38-.31-.98-.67-1.94-.67-1.93 0-3.27 1.45-3.27 3.31 0 2.18 1.74 3.29 3.25 3.29 1.07 0 1.99-.54 2.45-1.34.14-.25.3-.64.32-1.14h-2.37z"/><path d="m62.48 55.09h-3.26v2.38h3.17v.84h-3.17v3.11h3.26v.84h-4.15v-8h4.15v.84z"/><path d="m66.08 55.09v7.16h-.89v-7.16h-1.94v-.84h4.77v.84z"/><path d="m73.64 60h-3.41l-.96 2.25h-.98l3.68-8.38 3.59 8.38h-.98zm-.35-.84-1.34-3.2-1.37 3.2z"/></g></svg>