<svg viewBox="0 0 108.31 70.09" xmlns="http://www.w3.org/2000/svg"><path d="m81.81 55.81c-.3-2-.37-4.02-.23-6.04l.23-3.33c-1.29 2.56-1 5.93 0 9.37z" fill="#cacaca"/><path d="m82.81 56.37c-.14-1.19-.18-2.39-.11-3.59l.11-1.98c-.62 1.52-.48 3.53 0 5.58z" fill="#cacaca"/><path d="m87.27 58.82v1.12c0 .18-.15.33-.33.33h-.56c-.06 0-.11.05-.11.11v9.15c0 .18-.15.33-.33.33h-6.8c-.18 0-.33-.15-.33-.33v-9.15c0-.06-.05-.11-.11-.11h-.67c-.18 0-.33-.15-.33-.33v-1.12c0-.18.15-.33.33-.33h8.92c.18 0 .33.15.33.33z" fill="#f2f2f2"/><path d="m78.81 60.51h7.47v.33h-7.47z" fill="#e6e6e6"/><path d="m86.27 65.43c-2.5 1.03-5.03 1.05-7.58 0v-2.36c2.46-.83 5.12-.83 7.58 0z" fill="#e6e6e6"/><g fill="#2f2e41"><circle cx="50.36" cy="23.87" r="4.06"/><path d="m51.49 19.92c2.24 0 4.06 1.82 4.06 4.06 0 .67-.17 1.33-.49 1.93 1.4-1.75 1.11-4.3-.64-5.7s-4.3-1.11-5.7.64c-.15.19-.29.39-.4.61.77-.97 1.94-1.53 3.17-1.53z"/><circle cx="42.77" cy="11.93" r="11.92"/><path d="m33.41 4.53c4.27-4.8 11.58-5.36 16.53-1.25-.1-.09-.19-.19-.3-.28-4.92-4.37-12.46-3.93-16.83 1-4.37 4.92-3.93 12.45.99 16.83.1.09.21.17.31.26-4.66-4.43-4.96-11.75-.69-16.56z"/></g><circle cx="42.67" cy="16.08" fill="#ffb8b8" r="7.68"/><path d="m46.59 25.84-8.22.37s.69 4.25-3.76 4.65-8.49-.81-10.11 2.22-.92 13.83-.92 13.83 3.03 10.91 5.46 12.53 23.65-.61 23.65-.61l8.88-11.21-.3-8.65c-.16-4.52-4.28-7.91-8.72-7.07-.09.02-.18.03-.26.05-.13.03-.98-.73-3.65-2.07-1.64-.82-2.04-4.05-2.04-4.05z" fill="#cacaca"/><path d="m28.75 30.66s1.95 3.54 1.14 8.6c-.81 5.05 2.58 15.74 2.58 15.74l2.43-.61s-1.62-10.51-1.21-12.94.52-9.58-1.51-10.8c-2.02-1.21-3.44 0-3.44 0z" fill="#2f2e41"/><path d="m52.15 32.52.85 22.38 1.62 1.01s2.32-24.56 1.11-24.56h-2.47c-.61 0-1.11.5-1.11 1.11s0 .04 0 .06z" fill="#2f2e41"/><circle cx="33.59" cy="53.48" fill="#1da9b3" r="1.01"/><circle cx="53.8" cy="54.5" fill="#1da9b3" r="1.01"/><path d="m36.1 6.48v7.68h1.78l2.26-2.43-.3 2.43h7.86l-.48-2.43.97 2.43h1.25v-7.68z" fill="#2f2e41"/><ellipse cx="34.89" cy="14.46" fill="#ffb8b8" rx=".61" ry="1.11"/><ellipse cx="50.45" cy="14.46" fill="#ffb8b8" rx=".61" ry="1.11"/><path d="m67.27 67.86v.68c0 .19-.03.37-.1.54-.03.08-.07.15-.11.22-.27.45-.76.73-1.29.73h-49.8c-.53 0-1.02-.28-1.29-.73-.04-.07-.08-.15-.11-.22-.07-.17-.1-.36-.1-.54v-.68c0-.83.67-1.5 1.5-1.5h2.87v-.32s.03-.06.06-.06h1.5s.06.03.06.06v.32h.94v-.32s.03-.06.06-.06h1.5s.06.03.06.06v.32h.94v-.32s.03-.06.06-.06h1.5s.06.03.06.06v.32h.94v-.32s.03-.06.06-.06h1.5s.06.03.06.06v.32h.94v-.32s.03-.06.06-.06h1.5s.06.03.06.06v.32h.94v-.32s.03-.06.06-.06h1.5s.06.03.06.06v.32h.94v-.32s.03-.06.06-.06h11.73s.06.03.06.06v.32h.94v-.32s.03-.06.06-.06h1.5s.06.03.06.06v.32h.94v-.32s.03-.06.06-.06h1.5s.06.03.06.06v.32h.94v-.32s.03-.06.06-.06h1.5s.06.03.06.06v.32h.94v-.32s.03-.06.06-.06h1.5s.06.03.06.06v.32h.94v-.32s.03-.06.06-.06h1.5s.06.03.06.06v.32h.94v-.32s.03-.06.06-.06h1.5s.06.03.06.06v.32h4.37c.83 0 1.5.67 1.5 1.5z" fill="#3f3d56"/><path d="m0 69.86h108.31v.22h-108.31z" fill="#3f3d56"/><path d="m63.26 39.35h-45.62c-.69 0-1.26.56-1.26 1.26v25.42c0 .69.56 1.26 1.26 1.26h45.62c.69 0 1.26-.56 1.26-1.26v-25.42c0-.69-.56-1.26-1.26-1.26z" fill="#3f3d56"/><circle cx="40.49" cy="48.23" fill="#1da9b3" r="2.79"/><path d="m57.75 29.8 14.08-14.18h6.64v-.23h-6.74l-.03.04-14.11 14.22z" fill="#3f3d56"/><path d="m86.59 9.79h16.31v1.45h-16.31z" fill="#1da9b3"/><path d="m84.6 12.16h-3.45v-3.45h3.45zm-3.23-.22h3.01v-3.01h-3.01z" fill="#3f3d56"/><path d="m86.59 14.64h16.31v1.45h-16.31z" fill="#1da9b3"/><path d="m84.6 17.01h-3.45v-3.45h3.45zm-3.23-.22h3.01v-3.01h-3.01z" fill="#3f3d56"/><path d="m86.59 19.48h16.31v1.45h-16.31z" fill="#1da9b3"/><path d="m84.6 21.85h-3.45v-3.45h3.45zm-3.23-.22h3.01v-3.01h-3.01z" fill="#3f3d56"/></svg>