<svg viewBox="0 0 136.61 108.69" xmlns="http://www.w3.org/2000/svg"><path d="m36.26 24.98-16.25-2.16 3.29-16.66 17.45 3.45z" fill="#2f2e41"/><path d="m20.64 97.03v-68.7c0-1.25 1.01-2.26 2.26-2.26h111.45c1.25 0 2.26 1.01 2.26 2.26v68.71c0 1.25-1.01 2.26-2.26 2.26h-111.45c-1.25 0-2.26-1.01-2.26-2.26zm115.56-68.7c0-1.02-.83-1.85-1.85-1.85h-111.45c-1.02 0-1.85.83-1.85 1.85v68.71c0 1.02.83 1.85 1.85 1.85h79.22c18.82 0 34.08-15.26 34.08-34.08z" fill="#3f3d56"/><path d="m125.32 36.36-1.68-.8c.69.96 1.29 2.47 1.6 3.67.54-1.12 1.41-2.48 2.27-3.3l-1.78.46c1.1-5.37 5.22-9.23 9.94-9.23l.07-.19c-4.93 0-9.3 3.8-10.42 9.39z" fill="#3f3d56"/><path d="m133.07 44.54h-10.64c-.45 0-.82-.37-.82-.82s.37-.82.82-.82h10.64c.45 0 .82.37.82.82s-.37.82-.82.82z" fill="#1da9b3"/><g fill="#3f3d56"><path d="m101.49 50.69v21.68c0 1.92-1.56 3.48-3.48 3.48h-21.68c-1.92 0-3.48-1.56-3.48-3.48v-21.68c0-1.92 1.56-3.48 3.48-3.48h21.68c1.92 0 3.48 1.56 3.48 3.48zm-4.82 24.75c2.44 0 4.41-1.98 4.41-4.41v-9.59c0-7.63-6.19-13.82-13.82-13.82h-10.93c-1.69 0-3.07 1.37-3.07 3.07v18.66c0 3.37 2.73 6.09 6.09 6.09h17.31z"/><path d="m90.06 56.06h-7c-.18 0-.32-.14-.32-.32s.14-.32.32-.32h7c.18 0 .32.14.32.32s-.14.32-.32.32z"/><path d="m90.06 62.89h-7c-.18 0-.32-.14-.32-.32s.14-.32.32-.32h7c.18 0 .32.14.32.32s-.14.32-.32.32z"/><path d="m86.58 72.3h-7c-.18 0-.32-.14-.32-.32s.14-.32.32-.32h7c.18 0 .32.14.32.32s-.14.32-.32.32z"/><path d="m93.82 59.48h-14.51c-.18 0-.32-.14-.32-.32s.14-.32.32-.32h14.51c.18 0 .32.14.32.32s-.14.32-.32.32z"/></g><path d="m37.56 61.9h-23.99c2.01-4.49 3.25-8.76 1.31-12.16l22.67-1.31c-1.13 4.59-1.27 9.09 0 13.47z" fill="#ffb6b6"/><path d="m45.82 99.29h-17.63c-.13 0-.24-.07-.3-.19l-.11-.22-2.34-4.81c-.15-.31-.62-.21-.63.13l-.23 4.68v.09c-.01.18-.16.32-.34.32h-17.36c-.18 0-.32-.14-.33-.31 0-.03 0-.07 0-.1-1.11-17.11 2.88-28.71 5.22-33.9.92-2.04 1.59-3.09 1.59-3.09h.23s0 0 0 0l4.67-.08 4.14-.07 3.13-.05 1.25-.02h.79s3.9-.08 3.9-.08l3.49-.06 2.5-.04h.07l.37 1.61s.01.07.01.07.06.27.06.27.13.56.13.56 0 .03 0 .03.03.13.03.13.29 1.28.29 1.28l.48 2.07.63 2.71.79 3.44.4 1.73.55 2.39 4.87 21.1c.05.21-.11.41-.32.41z" fill="#2f2e41"/><path d="m34.09 21.94-9.55-.33-3.77 5.06-1.99.43c-2.98.65-5.02 3.39-4.78 6.43l.9 21.04.41 2.45 22.5 3.68 5.06-31.84-6.66-2.39-2.13-4.53z" fill="#1da9b3"/><circle cx="30.61" cy="12.58" fill="#ffb6b6" r="8.57"/><path d="m126.03 98.5-7.43-2.76c-1.11-.41-1.68-1.66-1.27-2.77l7.3-19.64c.41-1.11 1.66-1.68 2.77-1.27l7.43 2.76c1.11.41 1.68 1.66 1.27 2.77-2.79 7.94-5.84 16.86-7.3 19.64-.41 1.11-1.66 1.68-2.77 1.27z" fill="#3f3d56"/><path d="m134.27 82.83s-.1 0-.12.05l-1.02 2.74s0 .1.05.12.1 0 .12-.05l1.02-2.74s0-.1-.05-.12z" fill="#3f3d56"/><path d="m135.91 77.52-7.3 19.64c-.36.97-1.41 1.48-2.39 1.19s-.03 0-.04-.01c-.03 0-.05-.02-.08-.03 0 0-.09-.04-.26-.12s-.41-.19-.72-.33c-.09-.04-.19-.09-.29-.14-.2-.09-.43-.2-.66-.31-.1-.04-.19-.09-.29-.14-.51-.24-1.09-.52-1.69-.81-.1-.05-.21-.1-.31-.15-.03-.01-4.43-3.04-4.35-3.27l7.3-19.64c.38-1.01 1.5-1.52 2.51-1.15l1.09.41c.17.06.26.25.21.43v.04c-.03.19.08.37.26.43l3.84 1.43c.18.07.38 0 .48-.16 0-.01.01-.02.02-.03.08-.17.27-.25.44-.19l1.09.41c1.01.38 1.52 1.5 1.15 2.51z" fill="#1da9b3"/><path d="m123.42 76.46s-.1 0-.12.05l-.25.68s0 .1.05.12.1 0 .12-.05l.25-.68s0-.1-.05-.12z" fill="#3f3d56"/><path d="m122.65 78.51s-.1 0-.12.05l-.49 1.32s0 .1.05.12.1 0 .12-.05l.49-1.32s0-.1-.05-.12z" fill="#3f3d56"/><path d="m121.95 80.39s-.1 0-.12.05l-.49 1.32s0 .1.05.12.1 0 .12-.05l.49-1.32s0-.1-.05-.12z" fill="#3f3d56"/><rect fill="#e6e6e6" height="1.78" rx=".02" transform="matrix(.34840846 -.93734281 .93734281 .34840846 14.85 166.85)" width=".23" x="127.31" y="71.86"/><circle cx="133.81" cy="75.05" fill="#e6e6e6" r=".18"/><circle cx="134.28" cy="75.22" fill="#e6e6e6" r=".18"/><circle cx="134.75" cy="75.4" fill="#e6e6e6" r=".18"/><path d="m107.82 36.49h-6.41c-.83 0-1.5-.67-1.5-1.5v-7.23c0-.83.67-1.5 1.5-1.5h6.41c.83 0 1.5.67 1.5 1.5v7.23c0 .83-.67 1.5-1.5 1.5z" fill="#fff"/><path d="m107.82 36.49h-6.41c-.83 0-1.5-.67-1.5-1.5-.32-2.66-.41-5.14 0-7.23 0-.83.67-1.5 1.5-1.5h6.41c.83 0 1.5.67 1.5 1.5v7.23c0 .83-.67 1.5-1.5 1.5zm-6.41-10.02c-.71 0-1.29.58-1.29 1.29v7.23c0 .71.58 1.29 1.29 1.29h6.41c.71 0 1.29-.58 1.29-1.29v-7.23c0-.71-.58-1.29-1.29-1.29z" fill="#3f3d56"/><path d="m107.17 30.66h-5.29c-.22 0-.41-.18-.41-.41s.18-.41.41-.41h5.29c.22 0 .41.18.41.41s-.18.41-.41.41z" fill="#1da9b3"/><path d="m107.17 32.91h-5.29c-.22 0-.41-.18-.41-.41s.18-.41.41-.41h5.29c.22 0 .41.18.41.41s-.18.41-.41.41z" fill="#1da9b3"/><path d="m107.17 28.41h-5.29c-.22 0-.41-.18-.41-.41s.18-.41.41-.41h5.29c.22 0 .41.18.41.41s-.18.41-.41.41z" fill="#1da9b3"/><path d="m27.7 23.81c.47.89 1.1 1.59 1.77 2.05l3.94 8.71 4.09-2-4.44-8.62c0-.81-.23-1.73-.7-2.61-1.07-2.02-2.99-3.11-4.27-2.43s-1.46 2.88-.39 4.9 0 0 0 0z" fill="#ffb6b6"/><path d="m36.57 29.31s6-3.14 7.86.16c1.59 2.82 2.74 16.92 3.04 20.99.05.72-.13 1.43-.53 2.02-1.18 1.77-3.71 1.94-5.11.34l-12.16-23.94 5.77-2.74 1.41 3.42z" fill="#1da9b3"/><path d="m49.4 63.04c.13-.19.21-.41.21-.66v-20.98c0-.63-.51-1.15-1.15-1.15h-31.72c-.63 0-1.15.51-1.15 1.15v20.98c0 .25.08.47.21.66h-3.96v1.1c13.77.77 27.61.77 41.52 0v-1.1z" fill="#3f3d56"/><path d="m83.48 108.69h-6.41c-.83 0-1.5-.67-1.5-1.5v-7.23c0-.83.67-1.5 1.5-1.5h6.41c.83 0 1.5.67 1.5 1.5v7.23c0 .83-.67 1.5-1.5 1.5z" fill="#fff"/><path d="m83.48 108.69h-6.41c-.83 0-1.5-.67-1.5-1.5-.32-2.66-.41-5.14 0-7.23 0-.83.67-1.5 1.5-1.5h6.41c.83 0 1.5.67 1.5 1.5v7.23c0 .83-.67 1.5-1.5 1.5zm-6.41-10.02c-.71 0-1.29.58-1.29 1.29v7.23c0 .71.58 1.29 1.29 1.29h6.41c.71 0 1.29-.58 1.29-1.29v-7.23c0-.71-.58-1.29-1.29-1.29z" fill="#3f3d56"/><path d="m82.83 102.86h-5.29c-.22 0-.41-.18-.41-.41s.18-.41.41-.41h5.29c.22 0 .41.18.41.41s-.18.41-.41.41z" fill="#1da9b3"/><path d="m82.83 105.11h-5.29c-.22 0-.41-.18-.41-.41s.18-.41.41-.41h5.29c.22 0 .41.18.41.41s-.18.41-.41.41z" fill="#1da9b3"/><path d="m82.83 100.61h-5.29c-.22 0-.41-.18-.41-.41s.18-.41.41-.41h5.29c.22 0 .41.18.41.41s-.18.41-.41.41z" fill="#1da9b3"/><path d="m27.52 60.26c-1 0-1.92.24-2.63.62l-9.55-.55-.13 4.55 9.7.07c.72.37 1.64.59 2.64.59 2.29-.01 4.14-1.2 4.13-2.66 0-1.46-1.87-2.63-4.16-2.62z" fill="#ffb6b6"/><path d="m18.34 27.12s-8.12-.9-10.18 4.13c-1.58 3.85-5.68 18.84-7.99 27.42-.84 3.14 1.45 6.24 4.69 6.37l14.34.57.83-6.34-10.24-1.63 5.73-17.18 2.82-13.33z" fill="#1da9b3"/><path d="m39.18 5.96c.41-2.09-2.12-2.9-4.01-3.87l-1.61-1.36c-1.69-.86-3.66-.97-5.43-.31l-5.53 1.84c-2.51.95-3.39 3.2-4.83 5.45l-2.42 3.24c-1.42 2.22-1 5.69-.66 8.31l.14 1.1-1.33 3.18 10.24 1.83 2.06-4.92-1.29-2.34c-.46-.83-.27-1.86.44-2.49 2.57-2.24 3.06-6.08 3.06-6.08l2.17 1.91c1.58.59 3.03.9 4.37.92 1.47.03 2.79-.29 3.98-.94l.21 3.17c-.61 3.75-1.52 4.57-5.64 7.43l4.95 4.94.23-2.01c.55-4.78 2.94-8.11 3.58-11.96.45-2.66-.58-5.35-2.67-7.07z" fill="#2f2e41"/></svg>