<?xml version="1.0" encoding="UTF-8"?>
<svg id="_レイヤー_2" data-name="レイヤー 2" xmlns="http://www.w3.org/2000/svg" viewBox="0 0 16 16">
  <defs>
    <style>
      .cls-1 {
        fill: gray;
        stroke-width: 0px;
      }
    </style>
  </defs>
  <g id="_ワイヤーSP" data-name="ワイヤーSP">
    <path class="cls-1" d="m13.5,1.5h-7c-.55,0-1,.45-1,1v.5h-1.5v-.5c0-1.38,1.12-2.5,2.5-2.5h7c1.38,0,2.5,1.12,2.5,2.5v7c0,1.38-1.12,2.5-2.5,2.5h-.5v-1.5h.5c.55,0,1-.45,1-1V2.5c0-.55-.45-1-1-1ZM1.5,14c0,.27.23.5.5.5h8c.27,0,.5-.23.5-.5v-6H1.5v6Zm.5-10h8c1.1,0,2,.9,2,2v8c0,1.1-.9,2-2,2H2c-1.1,0-2-.9-2-2V6c0-1.1.9-2,2-2Z"/>
  </g>
</svg>